<?xml version="1.0" encoding="UTF-8"?>
<svg version="1.1" xmlns="http://www.w3.org/2000/svg" width="512" height="512">
<path d="M0 0 C168.96 0 337.92 0 512 0 C512 168.96 512 337.92 512 512 C343.04 512 174.08 512 0 512 C0 343.04 0 174.08 0 0 Z " fill="#000000" transform="translate(0,0)"/>
<path d="M0 0 C7.92829932 -0.09305875 15.85636693 -0.16394514 23.785079 -0.20724869 C27.46751258 -0.228042 31.14956997 -0.25620588 34.83178711 -0.30175781 C38.39150198 -0.34551408 41.95085714 -0.36919905 45.51082039 -0.37950897 C47.51648459 -0.39039642 49.52200594 -0.42157424 51.52745056 -0.45318604 C61.71301206 -0.45566652 68.78764964 1.3769584 76.375 8.375 C77.18710937 9.10460937 77.99921875 9.83421875 78.8359375 10.5859375 C83.77146054 16.09162927 84.52743072 21.55308565 85.5078125 28.67089844 C86.20745876 33.403228 87.3534719 37.98478718 88.5 42.625 C92.33939118 58.65659943 95.36601888 74.85567347 98.484375 91.03955078 C101.4789808 106.57603944 101.4789808 106.57603944 105 122 C105.35602295 121.30253662 105.7120459 120.60507324 106.07885742 119.88647461 C113.94234608 104.51538524 122.02123653 89.32037265 130.64892578 74.35986328 C131.82746131 72.30136591 132.9814942 70.23254736 134.12109375 68.15234375 C137.40031546 62.25850873 140.6574803 57.20606266 146 53 C146.81984375 52.35224609 146.81984375 52.35224609 147.65625 51.69140625 C154.77208461 47.18159002 165.03952974 47.89984321 172.9765625 49.66015625 C184.66953153 53.84138821 189.9348781 62.53260699 195.3125 73.1875 C196.5110422 75.51741509 197.71856633 77.84251954 198.92578125 80.16796875 C199.70562378 81.70360474 199.70562378 81.70360474 200.5012207 83.27026367 C201.892944 85.99041752 201.892944 85.99041752 203.69213867 88.11450195 C205 90 205 90 205 94 C205.66 94 206.32 94 207 94 C208.81518713 97.48692946 210.62995297 100.97407782 212.44433594 104.46142578 C213.36371131 106.22830511 214.28341611 107.995013 215.203125 109.76171875 C216.07324219 111.43427734 216.07324219 111.43427734 216.9609375 113.140625 C217.49509277 114.16704102 218.02924805 115.19345703 218.57958984 116.25097656 C219.73769879 118.49234932 220.87933164 120.73974904 222 123 C225.46721625 107.2951393 228.36023697 91.54125517 230.94384766 75.6706543 C231.12686684 74.56619461 231.12686684 74.56619461 231.31358337 73.43942261 C231.64707732 71.42685663 231.97449902 69.41328713 232.30151367 67.3996582 C232.92509926 64.36455532 233.80449047 61.84080873 235 59 C235.492931 56.99012646 235.492931 56.99012646 235.78125 54.98828125 C235.95877808 53.86498413 235.95877808 53.86498413 236.13989258 52.71899414 C236.25872803 51.92485107 236.37756348 51.13070801 236.5 50.3125 C236.63108154 49.48032959 236.76216309 48.64815918 236.8972168 47.79077148 C237.53969963 43.58986122 238.08203945 39.40816637 238.42578125 35.171875 C239.3529606 23.80737337 241.20390626 14.11146541 249.9375 5.9375 C256.70055115 0.29444458 263.03820868 -0.43159539 271.52734375 -0.29296875 C273.01071983 -0.28660149 273.01071983 -0.28660149 274.52406311 -0.28010559 C277.66216009 -0.26340129 280.79959928 -0.22576415 283.9375 -0.1875 C286.07355839 -0.17244251 288.20962691 -0.15875597 290.34570312 -0.14648438 C295.56402402 -0.11352493 300.781965 -0.06340838 306 0 C305.08194895 18.3050586 305.08194895 18.3050586 303.5625 27.375 C303.44068359 28.179375 303.31886719 28.98375 303.19335938 29.8125 C302.60282388 33.47198421 302.08217169 35.87674247 300 39 C299.41011505 41.16296281 299.41011505 41.16296281 299.03515625 43.5859375 C298.87668213 44.50552246 298.71820801 45.42510742 298.55493164 46.37255859 C298.3924292 47.36336426 298.22992676 48.35416992 298.0625 49.375 C297.88775146 50.4057666 297.71300293 51.4365332 297.53295898 52.49853516 C296.42799397 59.11010322 295.46219603 65.73291861 294.5625 72.375 C293.38665038 81.01720914 291.74742646 89.51795334 289.97900391 98.05664062 C287.99633283 107.73787121 286.39519563 117.4675854 284.81396484 127.22119141 C283.5075962 135.19325676 282.05223451 143.10324669 280.25561523 150.97998047 C279.28378246 155.30073141 278.66531172 159.56076354 278.21923828 163.96704102 C277.96073857 166.36406449 277.55234395 168.70234276 277.0625 171.0625 C276.90910156 171.81660156 276.75570313 172.57070313 276.59765625 173.34765625 C276.40042969 174.22292969 276.20320313 175.09820312 276 176 C275.7215625 177.258125 275.443125 178.51625 275.15625 179.8125 C271.93673258 192.49594266 264.92605981 204.01130136 253.78515625 211.0234375 C242.85296883 217.15948771 231.54705545 220.53671761 219.015625 217.20703125 C216.59217835 216.24866826 214.31127487 215.20186293 212 214 C211.06430176 213.55986572 210.12860352 213.11973145 209.16455078 212.66625977 C198.7779659 207.19731656 193.30061516 198.34497941 188.0625 188.25 C187.41267348 187.03155496 186.76098715 185.81409994 186.10742188 184.59765625 C184.91513603 182.37123231 183.73117688 180.14031169 182.55883789 177.90332031 C181.52913602 175.98551066 180.44239245 174.09713824 179.29858398 172.24511719 C178 170 178 170 178 168 C177.34 168 176.68 168 176 168 C174.18384089 164.5644212 172.3727061 161.12621865 170.5625 157.6875 C170.04623047 156.71103516 169.52996094 155.73457031 168.99804688 154.72851562 C168.50498047 153.79072266 168.01191406 152.85292969 167.50390625 151.88671875 C167.04830322 151.02264404 166.5927002 150.15856934 166.12329102 149.26831055 C165 147 165 147 164 144 C163.34 144 162.68 144 162 144 C161.9175 144.515625 161.835 145.03125 161.75 145.5625 C160.86295636 148.44539184 159.45480463 150.73375307 157.921875 153.31640625 C156.90544138 155.17268969 156.33443221 156.90979872 156 159 C155.34 159 154.68 159 154 159 C153.855625 159.78375 153.71125 160.5675 153.5625 161.375 C153 164 153 164 152 166 C151.34 166 150.68 166 150 166 C149.76539063 166.81339844 149.53078125 167.62679687 149.2890625 168.46484375 C147.71958985 172.76900358 145.62954543 176.58466234 143.375 180.5625 C142.92914551 181.35245361 142.48329102 182.14240723 142.02392578 182.95629883 C140.68965983 185.30829388 139.34510555 187.65419282 138 190 C137.63003906 190.65645508 137.26007813 191.31291016 136.87890625 191.98925781 C132.72552223 199.33604558 128.64651444 204.81721233 122 210 C120.9790625 211.11375 120.9790625 211.11375 119.9375 212.25 C113.54176289 218.02679481 106.19803328 217.36787851 98.0625 217.1875 C96.90169922 217.17396484 95.74089844 217.16042969 94.54492188 217.14648438 C91.69612948 217.1113141 88.84831156 217.06209287 86 217 C86 216.34 86 215.68 86 215 C85.030625 214.938125 84.06125 214.87625 83.0625 214.8125 C74.44290631 213.52651223 67.2804373 207.68602133 62 201 C60.77734375 198.25 60.77734375 198.25 60 196 C59.34 196 58.68 196 58 196 C57.01 192.37 56.02 188.74 55 185 C54.34 185 53.68 185 53 185 C52.79842285 183.84999512 52.5968457 182.69999023 52.38916016 181.51513672 C51.6370817 177.23160377 50.87900055 172.94915102 50.11914062 168.66699219 C49.79166563 166.81669376 49.46579949 164.96610981 49.14160156 163.11523438 C48.67419626 160.44844337 48.20093456 157.78274695 47.7265625 155.1171875 C47.58376862 154.29507782 47.44097473 153.47296814 47.29385376 152.62594604 C46.50982377 148.25560347 45.450791 144.20706922 44 140 C43.66896994 138.34161065 43.38188851 136.67380646 43.140625 135 C42.92611694 133.56901978 42.92611694 133.56901978 42.70727539 132.10913086 C42.55637451 131.08311768 42.40547363 130.05710449 42.25 129 C39.98167116 114.2334309 37.01829764 99.62849869 34 85 C33.53619262 82.72791881 33.07264061 80.45578547 32.609375 78.18359375 C30.60550084 68.4019833 28.58369251 58.6474824 26 49 C25.66204471 47.61736224 25.32487232 46.234533 24.98828125 44.8515625 C21.0810811 29.27302605 15.29496925 13.15964158 1.734375 3.36328125 C1.16203125 2.91339844 0.5896875 2.46351563 0 2 C0 1.34 0 0.68 0 0 Z " fill="#D9772A" transform="translate(197,159)"/>
<path d="M0 0 C10.09756496 8.41755415 17.78033031 19.76489292 25.84667969 30.08056641 C28.14446519 33.01698002 30.44958124 35.94762395 32.75390625 38.87890625 C33.20096924 39.44818848 33.64803223 40.0174707 34.10864258 40.60400391 C36.50905178 43.66063698 38.91259987 46.71474063 41.3203125 49.765625 C41.82175781 50.40177734 42.32320313 51.03792969 42.83984375 51.69335938 C43.80117506 52.91282594 44.7633706 54.13161186 45.7265625 55.34960938 C47.66639989 57.81193273 49.51388686 60.26887716 51.25390625 62.87890625 C55.2437727 61.54895077 56.80954781 58.92885577 59.25390625 55.69140625 C60.24197851 54.40739124 61.23026574 53.12354162 62.21875 51.83984375 C62.7226123 51.18081055 63.22647461 50.52177734 63.74560547 49.84277344 C66.0738512 46.81130554 68.44697904 43.81570796 70.81640625 40.81640625 C74.38926799 36.27749449 77.92788702 31.71387624 81.44140625 27.12890625 C85.00846426 22.47549477 88.62212199 17.86427099 92.30859375 13.3046875 C93.68592924 11.58716674 95.04344408 9.8536639 96.38671875 8.109375 C97.43472656 6.75779297 97.43472656 6.75779297 98.50390625 5.37890625 C99.43976563 4.156875 99.43976563 4.156875 100.39453125 2.91015625 C102.25405911 0.87873926 103.72512693 -0.09167916 106.25390625 -1.12109375 C121.97188717 12.77660629 128.14566472 29.90748474 132.69140625 50.06640625 C132.99344352 51.38597141 133.29577546 52.70546915 133.59838867 54.02490234 C137.01735459 69.00583492 140.31434509 84.00679264 142.79174805 99.17431641 C143.32867055 102.31643341 144.00202552 105.40648455 144.75390625 108.50390625 C146.56966255 116.20271294 148.11184177 123.86893133 149.30810547 131.68798828 C150.41672783 138.92863395 151.61930407 146.06447685 153.38671875 153.1796875 C154.09811902 156.21435442 154.72123681 159.23706989 155.30859375 162.296875 C158.60786344 179.16873882 163.17052723 193.04469407 176.25390625 204.87890625 C178.4149457 206.15797301 178.4149457 206.15797301 180.25390625 206.87890625 C180.25390625 207.53890625 180.25390625 208.19890625 180.25390625 208.87890625 C174.68549486 208.95335536 169.11737661 209.00764943 163.54858398 209.04370117 C161.65628 209.05873871 159.76401059 209.0791741 157.87182617 209.10522461 C155.14363039 209.14183024 152.41589754 209.15868315 149.6875 209.171875 C148.42926674 209.19510078 148.42926674 209.19510078 147.14561462 209.21879578 C139.21020537 209.22104257 133.6374443 206.70202389 127.25390625 201.87890625 C123.25390625 197.45785362 123.25390625 197.45785362 123.25390625 194.87890625 C122.59390625 194.87890625 121.93390625 194.87890625 121.25390625 194.87890625 C117.83553556 189.42152043 117.84272474 184.87561967 117.91333008 178.65087891 C117.912892 177.63563141 117.91245392 176.62038391 117.91200256 175.57437134 C117.91408672 172.23037247 117.93740074 168.88687966 117.9609375 165.54296875 C117.96653477 163.21984125 117.97080425 160.8967102 117.97380066 158.57357788 C117.98523907 152.46777521 118.01469791 146.3621876 118.0479126 140.25646973 C118.07863494 134.02257191 118.09231064 127.78863925 118.10742188 121.5546875 C118.13956833 109.32933274 118.19075279 97.1041374 118.25390625 84.87890625 C114.65467083 87.68155624 111.98471386 90.29469448 109.31640625 94.00390625 C105.37433074 99.38066033 101.34912115 104.68019646 97.25390625 109.94140625 C96.34692993 111.10772583 96.34692993 111.10772583 95.42163086 112.29760742 C91.45421381 117.38289466 87.40047344 122.38073777 83.28125 127.34375 C80.38216981 130.96899671 77.72231 134.75257129 75.078125 138.56640625 C73.29376271 140.82838158 71.68822861 142.35306295 69.25390625 143.87890625 C68.59390625 143.87890625 67.93390625 143.87890625 67.25390625 143.87890625 C67.25390625 144.86890625 67.25390625 145.85890625 67.25390625 146.87890625 C56.66076433 150.07683589 47.27868515 149.87558288 37.25390625 144.87890625 C30.83827207 140.9567979 26.84554306 134.54101133 22.50146484 128.56591797 C20.33794981 125.6403037 18.0751409 122.79373194 15.81640625 119.94140625 C12.18192789 115.33921626 8.57383347 110.71887609 5.00390625 106.06640625 C4.59197021 105.52959229 4.18003418 104.99277832 3.75561523 104.43969727 C3.35544189 103.91819092 2.95526855 103.39668457 2.54296875 102.859375 C-0.05201367 99.48058389 -2.65842257 96.11112537 -5.28125 92.75390625 C-6.54684324 91.1339469 -7.80355907 89.50705934 -9.05859375 87.87890625 C-10.59633305 85.78911659 -10.59633305 85.78911659 -12.74609375 84.87890625 C-12.72943916 86.76239273 -12.72943916 86.76239273 -12.71244812 88.68392944 C-12.61090219 100.54194699 -12.53604663 112.39987582 -12.48703289 124.25823021 C-12.46098686 130.35414182 -12.42567927 136.44970122 -12.36889648 142.54541016 C-12.31439981 148.43283149 -12.28463567 154.31991494 -12.27170753 160.20756912 C-12.26249941 162.448974 -12.24451813 164.69036128 -12.21744347 166.93162155 C-12.18091938 170.08160497 -12.17615827 173.23020855 -12.1784668 176.38037109 C-12.16049042 177.29819366 -12.14251404 178.21601624 -12.12399292 179.16165161 C-12.18637173 187.07539756 -14.84229093 193.37102766 -19.88671875 199.46484375 C-20.5828125 200.05523437 -21.27890625 200.645625 -21.99609375 201.25390625 C-23.02476563 202.16269531 -23.02476563 202.16269531 -24.07421875 203.08984375 C-31.00193549 207.72857806 -37.08400616 209.47613212 -45.375 209.26953125 C-46.25010727 209.26387146 -47.12521454 209.25821167 -48.02684021 209.25238037 C-50.78801081 209.2302106 -53.54782368 209.18005396 -56.30859375 209.12890625 C-58.19464255 209.10881605 -60.08071195 209.09056972 -61.96679688 209.07421875 C-66.56040909 209.03040993 -71.15302225 208.96152116 -75.74609375 208.87890625 C-75.81627753 186.00824338 -75.86912779 163.13759835 -75.90153027 140.26684952 C-75.9169774 129.64677574 -75.93802565 119.02676901 -75.97241211 108.40673828 C-76.0023805 99.1467588 -76.0216844 89.88682789 -76.02835923 80.62680125 C-76.0322589 75.7269214 -76.04137858 70.82718046 -76.06328392 65.92734528 C-76.08376674 61.30793016 -76.08990388 56.68871014 -76.08541679 52.06925392 C-76.08623675 50.38109842 -76.09213173 48.69293586 -76.10371017 47.00481987 C-76.20691056 31.17110991 -74.32598083 16.52614329 -62.93359375 4.56640625 C-61.56309983 3.30904879 -60.16730969 2.07863399 -58.74609375 0.87890625 C-57.78123047 0.04552734 -57.78123047 0.04552734 -56.796875 -0.8046875 C-40.30480059 -13.401491 -16.14058268 -11.77088179 0 0 Z " fill="#D8762A" transform="translate(80.74609375,166.12109375)"/>
<path d="M0 0 C11.51572655 5.10945525 17.4484665 17.35796411 21.99780273 28.42797852 C24.83996461 35.86095788 26.68924765 43.43455548 28.4375 51.1875 C28.73953727 52.50706516 29.04186921 53.8265629 29.34448242 55.14599609 C32.76344834 70.12692867 36.06043884 85.12788639 38.5378418 100.29541016 C39.0747643 103.43752716 39.74811927 106.5275783 40.5 109.625 C42.3157563 117.32380669 43.85793552 124.99002508 45.05419922 132.80908203 C46.16282158 140.0497277 47.36539782 147.1855706 49.1328125 154.30078125 C49.84421277 157.33544817 50.46733056 160.35816364 51.0546875 163.41796875 C54.35395719 180.28983257 58.91662098 194.16578782 72 206 C74.16103945 207.27906676 74.16103945 207.27906676 76 208 C76 208.66 76 209.32 76 210 C62.8 210 49.6 210 36 210 C36 209.67 36 209.34 36 209 C47.55 209 59.1 209 71 209 C71 208.34 71 207.68 71 207 C69.92685547 206.62875 69.92685547 206.62875 68.83203125 206.25 C59.89951995 202.30737432 52.23765612 194.10856388 47 186 C46.2890625 183.70703125 46.2890625 183.70703125 46 182 C45.34 182 44.68 182 44 182 C42.46580258 177.40974712 40.93797062 172.8175906 39.4296875 168.21875 C39.17316406 167.44015625 38.91664063 166.6615625 38.65234375 165.859375 C38.12406131 164.25594487 37.59810236 162.65174773 37.07421875 161.046875 C36.06812278 157.2283782 36.06812278 157.2283782 34 154 C33.65263299 152.22897013 33.35599449 150.44792202 33.08203125 148.6640625 C32.10169646 142.53221774 30.92929827 136.4584773 29.6875 130.375 C25.40649534 109.16997912 21.40536598 87.91239672 17.4296875 66.6484375 C17.19483643 65.39514648 16.95998535 64.14185547 16.71801758 62.85058594 C16.22636324 60.2139412 15.73881583 57.57683366 15.2565918 54.93847656 C13.72168588 46.57738189 12.02876099 38.27185659 10.0625 30 C9.82337891 28.94683594 9.58425781 27.89367187 9.33789062 26.80859375 C7.88204736 20.67023615 6.03096982 15.53105695 3 10 C1.95451748 7.68351143 0.9776269 5.34630457 0 3 C-0.99 3 -1.98 3 -3 3 C-2.01 2.01 -1.02 1.02 0 0 Z " fill="#954F18" transform="translate(185,165)"/>
<path d="M0 0 C0.66 0 1.32 0 2 0 C2 33 2 66 2 100 C1.67 100 1.34 100 1 100 C0.505 52.48 0.505 52.48 0 4 C-1.98 4.99 -1.98 4.99 -4 6 C-2.84826645 3.53199953 -1.95216435 1.95216435 0 0 Z " fill="#261305" transform="translate(197,251)"/>
<path d="M0 0 C0.66 0.33 1.32 0.66 2 1 C0.90033225 2.29549899 -0.20491801 3.58626071 -1.3125 4.875 C-1.92738281 5.59429687 -2.54226563 6.31359375 -3.17578125 7.0546875 C-5 9 -5 9 -8 11 C-6.52670958 5.99081256 -3.72484762 3.48192278 0 0 Z " fill="#AE5C20" transform="translate(449,163)"/>
<path d="M0 0 C0.66 0 1.32 0 2 0 C2 2.97 2 5.94 2 9 C1.67 9 1.34 9 1 9 C0.67 7.35 0.34 5.7 0 4 C-1.98 4.99 -1.98 4.99 -4 6 C-2.84826645 3.53199953 -1.95216435 1.95216435 0 0 Z " fill="#381F0C" transform="translate(197,251)"/>
<path d="M0 0 C0.33 0.99 0.66 1.98 1 3 C-0.28965176 4.37562854 -1.62689293 5.70766393 -3 7 C-3.66 7 -4.32 7 -5 7 C-3.70700306 4.11562221 -2.34058637 2.12780579 0 0 Z " fill="#A8571E" transform="translate(19,170)"/>
</svg>
